<svg xmlns="http://www.w3.org/2000/svg" xmlns:xlink="http://www.w3.org/1999/xlink" viewBox="0 0 1362.3 105.01"><defs><style>.cls-1{fill:none;}.cls-2{clip-path:url(#clip-path);}.cls-3{fill:#547dbf;}.cls-4{fill:#33a851;}.cls-5{fill:#f9bc15;}.cls-6{fill:#ea4435;fill-rule:evenodd;}.cls-7{fill:#c42427;}.cls-8{fill:#fff;}</style><clipPath id="clip-path" transform="translate(0 -18.13)"><rect class="cls-1" y="18.13" width="139.98" height="105.01"/></clipPath></defs><g id="Layer_2" data-name="Layer 2"><g id="Layer_1-2" data-name="Layer 1"><g id="Artwork_4" data-name="Artwork 4"><g class="cls-2"><g class="cls-2"><path class="cls-3" d="M9.54,123.13H31.81V69.05L0,45.19v68.4a9.55,9.55,0,0,0,9.54,9.55Z" transform="translate(0 -18.13)"/><path class="cls-4" d="M108.16,123.13h22.27a9.55,9.55,0,0,0,9.55-9.54V45.19L108.16,69.05Z" transform="translate(0 -18.13)"/><path class="cls-5" d="M108.16,27.7V69.05L140,45.19V32.47A14.32,14.32,0,0,0,117.07,21Z" transform="translate(0 -18.13)"/><polygon class="cls-6" points="31.81 50.93 31.81 9.57 69.99 38.2 108.16 9.57 108.16 50.93 69.99 79.56 31.81 50.93"/><path class="cls-7" d="M0,32.47V45.19L31.81,69.05V27.7L22.91,21A14.32,14.32,0,0,0,0,32.47Z" transform="translate(0 -18.13)"/></g></g></g><path class="cls-8" d="M234.46,110.82Q222.31,123,206.15,123a44.81,44.81,0,0,1-18.8-4A47.45,47.45,0,0,1,172,108a52.58,52.58,0,0,1-10.29-16.51A54.85,54.85,0,0,1,158,70.93a51.55,51.55,0,0,1,14.23-35.82,49.92,49.92,0,0,1,15.66-11A47,47,0,0,1,207.44,20q14.3,0,24.52,6a38.83,38.83,0,0,1,15.37,16.15L232.61,53.05a27.41,27.41,0,0,0-10.8-11.58,29.66,29.66,0,0,0-15.09-4,25.76,25.76,0,0,0-11.8,2.71,27.78,27.78,0,0,0-9.15,7.44,35.1,35.1,0,0,0-5.86,10.87,40.48,40.48,0,0,0-2.07,13,38.55,38.55,0,0,0,2.28,13.37,34.13,34.13,0,0,0,6.3,10.8,29.35,29.35,0,0,0,9.51,7.22,27.22,27.22,0,0,0,11.94,2.64q14.72,0,26.59-13.87V84.51H214V70.07h36.76v52.19H234.46Z" transform="translate(0 -18.13)"/><path class="cls-8" d="M350.44,122.26V55.05L324.27,105.1H313.54l-26.17-50v67.21H267.64V20.73H288.8l30,57.78,30.32-57.78h21V122.26Z" transform="translate(0 -18.13)"/><path class="cls-8" d="M420.22,20.73h17.44l38.61,101.53H456L446.53,97H411.07l-9.3,25.31h-20.3ZM443,83.08l-14-39.89L414.36,83.08Z" transform="translate(0 -18.13)"/><path class="cls-8" d="M487.43,122.26V20.73h19.73V122.26Z" transform="translate(0 -18.13)"/><path class="cls-8" d="M528.33,122.26V20.73h19.73V105h51.77v17.3Z" transform="translate(0 -18.13)"/><path class="cls-8" d="M666.75,20.73H684.2l38.61,101.53H702.5L693.06,97H657.6l-9.3,25.31H628Zm22.74,62.35-14-39.89L660.89,83.08Z" transform="translate(0 -18.13)"/><path class="cls-8" d="M753.69,57.2v65.06H734V20.73h15.3l52.91,66.64V20.88h19.74V122.26h-16Z" transform="translate(0 -18.13)"/><path class="cls-8" d="M872,20.73H889.4L928,122.26H907.7L898.26,97H862.8l-9.29,25.31H833.2Zm22.74,62.35-14-39.89L866.09,83.08Z" transform="translate(0 -18.13)"/><path class="cls-8" d="M939.16,122.26V20.73H958.9V105h51.76v17.3Z" transform="translate(0 -18.13)"/><path class="cls-8" d="M1016.81,20.73l25,48.91,25.45-48.91h21.31L1051.7,86.8v35.46h-19.59V86.51L995.36,20.73Z" transform="translate(0 -18.13)"/><path class="cls-8" d="M1093.46,107.39,1150.8,38H1095V20.73h78.51V35.61L1118.05,105H1174v17.3h-80.51Z" transform="translate(0 -18.13)"/><path class="cls-8" d="M1259.91,105v17.3h-70.5V20.73h69.21V38h-49.47V62.49h42.75v16h-42.75V105Z" transform="translate(0 -18.13)"/><path class="cls-8" d="M1275.35,122.26V20.73h36.9a55.15,55.15,0,0,1,21.81,4,43.89,43.89,0,0,1,25.09,27,60.47,60.47,0,0,1,3.15,19.67,59.36,59.36,0,0,1-3.51,21,44.56,44.56,0,0,1-10.08,16,45.37,45.37,0,0,1-15.8,10.3,55.82,55.82,0,0,1-20.66,3.64Zm67.07-50.9a43.3,43.3,0,0,0-2-13.44,30.28,30.28,0,0,0-5.86-10.59,26.24,26.24,0,0,0-9.51-6.86,32.14,32.14,0,0,0-12.8-2.43h-17.16V105h17.16a31,31,0,0,0,12.94-2.57,26.67,26.67,0,0,0,9.44-7.08,31.63,31.63,0,0,0,5.79-10.65A42.9,42.9,0,0,0,1342.42,71.36Z" transform="translate(0 -18.13)"/></g></g></svg>