<svg version="1" xmlns="http://www.w3.org/2000/svg" width="938.667" height="938.667" viewBox="0 0 704.000000 704.000000"><path d="M54.8 89.5C29.6 95.7 8.4 116.6 2 141.6c-2 7.6-2 12.1-2 221 0 211.7 0 213.2 2 219.8 4.1 13.3 15.5 25.4 28.7 30.8l5.8 2.3 61.7.3 61.8.3.2-135.6.3-135.6 95.4 71.5c52.5 39.4 95.7 71.6 96.1 71.6.4 0 43.6-32.2 96.1-71.6l95.4-71.5.3 135.6.2 135.6 61.8-.3 61.7-.3 5.8-2.3c13.2-5.4 24.6-17.5 28.7-30.8 2-6.6 2-8.1 2-218.4 0-184.5-.2-212.8-1.5-219-9.7-46.1-61.6-70.8-103.3-49-4.8 2.5-52.1 37.3-127.2 93.5-65.7 49.3-120 89.3-120.6 89.1-.7-.3-55.2-41-121.3-90.5-66-49.5-122.7-91.4-126-93C93.9 89.9 85 88 72 88.1c-6.3 0-14.1.7-17.2 1.4z"/></svg>